# xmcd
#
# Track frame offsets:
#	150
#	12457
#	22327
#	34112
#	44092
#	55977
#	70860
#	84507
#	101867
#	113842
#	137625
#	152125
#	168407
#	180777
#	191782
#	204797
#	215097
#	227757
#	238022
#	249592
#	259250
#	267127
#	279937
#	292730
#
# Disc length: 4170 seconds
# Revision: 1
# Processed by: cddbd v1.5.2PL0 Copyright (c) Steve Scherf et al.
# Submitted via: dBpowerAMP V12.0
#
DISCID=5d104818
DTITLE=Jimmy Dean - The Complete Columbia Hits and More
DYEAR=2004
DGENRE=Country
TTITLE0=Deep Blue Sea
TTITLE1=Makin' My Mind Up
TTITLE2=Starlight Starbright
TTITLE3=My Heart Is An Open Book
TTITLE4=Sing Along
TTITLE5=Little Boy Lost
TTITLE6=Big Bad John
TTITLE7=Dear Ivan
TTITLE8=The Cajun Queen
TTITLE9=To A Sleeping Beauty
TTITLE10=P.T. 109
TTITLE11=Little Bitty Big John
TTITLE12=Steel Men
TTITLE13=Little Black Book
TTITLE14=Gonna Raise A Ruckus Tonight
TTITLE15=This Ole House
TTITLE16=Mile Long Train
TTITLE17=Thumb Pick Pete
TTITLE18=Mind Your Own Business
TTITLE19=The First Thing Ev'ry Morning (and The Last Thing Ev'ry Night)
TTITLE20=Harvest Of Sunshine
TTITLE21=Striker Bill
TTITLE22=Little Sandy Straightfoot
TTITLE23=Yes Patricia There Is A Santa Claus
EXTD=
EXTT0=
EXTT1=
EXTT2=
EXTT3=
EXTT4=
EXTT5=
EXTT6=
EXTT7=
EXTT8=
EXTT9=
EXTT10=
EXTT11=
EXTT12=
EXTT13=
EXTT14=
EXTT15=
EXTT16=
EXTT17=
EXTT18=
EXTT19=
EXTT20=
EXTT21=
EXTT22=
EXTT23=
PLAYORDER=
